# xmcd CD database file
#
# Track frame offsets:
#	150
#	19548
#	34710
#	50505
#	66245
#	79675
#	93023
#	107643
#	124445
#	137925
#	152328
#	171950
#
# Disc length: 2474 seconds
#
# Revision: 0
# Processed by: cddbd v1.5.2PL0 Copyright (c) Steve Scherf et al.
# Submitted via: CDex 1.70beta2
#
DISCID=9509a80c
DTITLE=Eiji Okada and The Shining Star - Screen Themes by Request
DYEAR=1986
DGENRE=Jazz
TTITLE0=As time goes by (from 'Casablanca')
TTITLE1=It's only a paper moon (from 'Paper Moon')
TTITLE2=Love letters (from 'Love Letters')
TTITLE3=The days of wine and roses (from 'Days of wine and roses')
TTITLE4=An affair to remember (from 'An affair to remember')
TTITLE5=Moonglow and Picnic (from 'Picnic')
TTITLE6=Sentimental Journey (from 'Sentimental journey')
TTITLE7=September song (from 'September affair')
TTITLE8=Mona Lisa (From 'Captain Carey U.S.A.')
TTITLE9=Around the world (from 'Around the world in 80 days')
TTITLE10=My foolish heart (from My foolish heart')
TTITLE11=Dream (from 'Daddy Long Legs')
EXTD=YEAR: 1986
EXTT0=
EXTT1=
EXTT2=
EXTT3=
EXTT4=
EXTT5=
EXTT6=
EXTT7=
EXTT8=
EXTT9=
EXTT10=
EXTT11=
PLAYORDER=
